<svg width="402" height="337" viewBox="0 0 402 337" fill="none" xmlns="http://www.w3.org/2000/svg">
<rect width="402" height="337" fill="#C4C4C4"/>
<path d="M161.39 187.24H173.519V190H157.997V164.406H161.39V187.24ZM195.896 178.029C195.896 180.537 195.474 182.729 194.63 184.604C193.786 186.467 192.591 187.891 191.044 188.875C189.497 189.859 187.692 190.352 185.63 190.352C183.614 190.352 181.827 189.859 180.269 188.875C178.71 187.879 177.497 186.467 176.63 184.639C175.774 182.799 175.335 180.672 175.312 178.258V176.412C175.312 173.951 175.739 171.777 176.595 169.891C177.45 168.004 178.657 166.562 180.216 165.566C181.786 164.559 183.579 164.055 185.595 164.055C187.646 164.055 189.45 164.553 191.009 165.549C192.579 166.533 193.786 167.969 194.63 169.855C195.474 171.73 195.896 173.916 195.896 176.412V178.029ZM192.538 176.377C192.538 173.342 191.929 171.016 190.71 169.398C189.491 167.77 187.786 166.955 185.595 166.955C183.462 166.955 181.78 167.77 180.55 169.398C179.331 171.016 178.704 173.266 178.669 176.148V178.029C178.669 180.971 179.284 183.285 180.515 184.973C181.757 186.648 183.462 187.486 185.63 187.486C187.81 187.486 189.497 186.695 190.692 185.113C191.888 183.52 192.503 181.24 192.538 178.275V176.377ZM219.854 186.643C218.987 187.885 217.774 188.816 216.216 189.438C214.669 190.047 212.864 190.352 210.802 190.352C208.716 190.352 206.864 189.865 205.247 188.893C203.63 187.908 202.376 186.514 201.485 184.709C200.606 182.904 200.155 180.812 200.132 178.434V176.201C200.132 172.346 201.028 169.357 202.821 167.236C204.626 165.115 207.157 164.055 210.415 164.055C213.087 164.055 215.237 164.74 216.866 166.111C218.495 167.471 219.491 169.404 219.854 171.912H216.479C215.847 168.525 213.831 166.832 210.433 166.832C208.171 166.832 206.454 167.629 205.282 169.223C204.122 170.805 203.536 173.102 203.524 176.113V178.205C203.524 181.076 204.181 183.361 205.493 185.061C206.806 186.748 208.581 187.592 210.819 187.592C212.085 187.592 213.192 187.451 214.142 187.17C215.091 186.889 215.876 186.414 216.497 185.746V179.998H210.573V177.256H219.854V186.643ZM245.185 178.029C245.185 180.537 244.763 182.729 243.919 184.604C243.075 186.467 241.88 187.891 240.333 188.875C238.786 189.859 236.981 190.352 234.919 190.352C232.903 190.352 231.116 189.859 229.558 188.875C227.999 187.879 226.786 186.467 225.919 184.639C225.063 182.799 224.624 180.672 224.601 178.258V176.412C224.601 173.951 225.028 171.777 225.884 169.891C226.739 168.004 227.946 166.562 229.505 165.566C231.075 164.559 232.868 164.055 234.884 164.055C236.935 164.055 238.739 164.553 240.298 165.549C241.868 166.533 243.075 167.969 243.919 169.855C244.763 171.73 245.185 173.916 245.185 176.412V178.029ZM241.827 176.377C241.827 173.342 241.218 171.016 239.999 169.398C238.78 167.77 237.075 166.955 234.884 166.955C232.751 166.955 231.069 167.77 229.839 169.398C228.62 171.016 227.993 173.266 227.958 176.148V178.029C227.958 180.971 228.573 183.285 229.804 184.973C231.046 186.648 232.751 187.486 234.919 187.486C237.099 187.486 238.786 186.695 239.981 185.113C241.177 183.52 241.792 181.24 241.827 178.275V176.377Z" fill="black"/>
</svg>
