<svg width="50" height="50" viewBox="0 0 50 50" fill="none" xmlns="http://www.w3.org/2000/svg">
<circle cx="24.5" cy="24.5" r="19.5" fill="white"/>
<path d="M42.675 7.31966C32.9105 -2.44195 17.0813 -2.43961 7.31966 7.32503C-2.44195 17.0897 -2.43961 32.9188 7.32503 42.6804C17.0897 52.442 32.9188 52.4396 42.6804 42.675C47.3685 37.9855 50.0015 31.6256 50 24.9946C49.9986 18.3648 47.3638 12.007 42.675 7.31966ZM37.8616 34.8247C37.8606 34.8258 37.8595 34.827 37.8583 34.828V34.8197L36.5916 36.078C34.9534 37.7369 32.5676 38.4194 30.2999 37.878C28.0153 37.2665 25.8434 36.2931 23.8666 34.9947C22.0301 33.821 20.3281 32.4489 18.7916 30.903C17.3779 29.4996 16.1077 27.9586 14.9999 26.303C13.7882 24.5216 12.8291 22.581 12.1499 20.5364C11.3713 18.1344 12.0165 15.4988 13.8166 13.7281L15.2999 12.2448C15.7123 11.8305 16.3824 11.829 16.7966 12.2414C16.7977 12.2425 16.7989 12.2436 16.7999 12.2448L21.4832 16.9281C21.8975 17.3405 21.8989 18.0106 21.4865 18.4247C21.4855 18.4258 21.4844 18.4269 21.4832 18.4281L18.7332 21.178C17.9442 21.9585 17.8449 23.1987 18.4999 24.0947C19.4946 25.4598 20.5952 26.7443 21.7916 27.9364C23.1255 29.2761 24.5756 30.4947 26.1249 31.5781C27.0201 32.2025 28.2338 32.0973 29.0082 31.3281L31.6665 28.6281C32.0789 28.2139 32.749 28.2124 33.1632 28.6248C33.1643 28.6259 33.1653 28.627 33.1665 28.6281L37.8582 33.3281C38.2726 33.7404 38.274 34.4105 37.8616 34.8247Z" fill="black"/>
<rect x="13.23" y="12.4238" width="1.68438" height="11.9422" transform="rotate(-44.1243 13.23 12.4238)" fill="black"/>
<rect x="29.9292" y="29.688" width="1.68438" height="11.9422" transform="rotate(-44.1243 29.9292 29.688)" fill="black"/>
<rect x="11.1323" y="12.4238" width="0.976562" height="11.9141" transform="rotate(-44.1243 11.1323 12.4238)" fill="black"/>
<rect x="27.8316" y="29.688" width="0.976562" height="11.9141" transform="rotate(-44.1243 27.8316 29.688)" fill="black"/>
<path d="M27.386 16.5441H28.1581C30.5032 16.5441 32.4559 18.4967 32.4559 20.8419V21.614C32.4559 21.8272 32.6287 22 32.8419 22H33.614C33.8272 22 34 21.8272 34 21.614V20.8419C34 17.6439 31.3561 15 28.1581 15H27.386C27.1728 15 27 15.1728 27 15.386V16.1581C27 16.3713 27.1728 16.5441 27.386 16.5441Z" fill="white"/>
<path d="M27.8444 13.8776H28.5332C32.147 13.8776 35.1224 16.853 35.1224 20.4668V21.1556C35.1224 21.3458 35.2766 21.5 35.4668 21.5H36.1556C36.3458 21.5 36.5 21.3458 36.5 21.1556V20.4668C36.5 16.0922 32.9078 12.5 28.5332 12.5H27.8444C27.6542 12.5 27.5 12.6542 27.5 12.8444V13.5332C27.5 13.7234 27.6542 13.8776 27.8444 13.8776Z" fill="white"/>
<path d="M28.0547 10H27.3516C27.1574 10 27 10.1574 27 10.3516V11.0547C27 11.2489 27.1574 11.4062 27.3516 11.4062H28.0547C33.2971 11.4062 37.5938 15.7029 37.5938 20.9453V21.6484C37.5938 21.8426 37.7511 22 37.9453 22H38.6484C38.8426 22 39 21.8426 39 21.6484V20.9453C39 14.9263 34.0737 10 28.0547 10Z" fill="white"/>
</svg>
