<svg width="54" height="45" viewBox="0 0 54 45" fill="none" xmlns="http://www.w3.org/2000/svg">
<path d="M0.235564 21.7441C0.662541 21.3001 1.07173 20.7928 1.53429 20.3965C4.87894 17.5269 8.22359 14.6731 11.586 11.8193C14.1479 9.63147 16.7275 7.45944 19.3072 5.28741C21.0151 3.84468 22.7052 2.37024 24.4131 0.943359C25.9253 -0.324977 28.0602 -0.309117 29.5724 0.959219C32.1699 3.1471 34.7495 5.36668 37.3292 7.57041C37.3825 7.61797 37.4359 7.64968 37.5604 7.72895C37.5782 7.52285 37.596 7.38017 37.596 7.22163C37.596 5.31912 37.596 3.41661 37.596 1.49826C37.596 0.420171 37.9163 0.0872382 38.9659 0.0872382C40.8873 0.0872382 42.8087 0.0872382 44.7301 0.0872382C45.7086 0.0872382 46.0644 0.451881 46.0644 1.4507C46.0644 5.79475 46.0644 10.1546 46.0644 14.4987C46.0644 14.8633 46.1711 15.0853 46.438 15.3073C48.6263 17.1464 50.8323 19.0013 53.0028 20.8721C53.2874 21.1099 53.4831 21.427 53.7144 21.7124C53.7144 21.9185 53.7144 22.1246 53.7144 22.3307C53.0206 23.2027 52.3267 24.0905 51.6151 24.9625C51.0102 25.7076 50.4587 25.771 49.7115 25.1527C47.7189 23.4722 45.7442 21.7599 43.7516 20.0794C42.0081 18.5891 40.2468 17.0988 38.5034 15.6244C36.7065 14.0865 34.8918 12.5486 33.095 11.0266C31.1558 9.3778 29.1988 7.7131 27.2774 6.04841C27.0461 5.85816 26.886 5.84231 26.6548 6.04841C24.8757 7.57042 23.0966 9.09242 21.3175 10.6144C19.5385 12.1206 17.7772 13.6267 15.9981 15.1329C14.2191 16.6549 12.44 18.161 10.6609 19.683C8.66836 21.3794 6.69359 23.06 4.70103 24.7564C4.46975 24.9466 4.25626 25.1527 4.00719 25.3271C3.45568 25.7235 2.93975 25.7076 2.49498 25.1686C1.71219 24.249 0.982773 23.2978 0.217773 22.3624C0.235564 22.1563 0.235564 21.9502 0.235564 21.7441Z" fill="#C4C4C4"/>
<path d="M31.2787 44.1642C31.2787 39.7103 31.2787 35.2891 31.2787 30.8352C31.0829 30.8189 30.9583 30.8189 30.8159 30.8189C28.2883 30.8189 25.7786 30.8189 23.251 30.8026C22.8772 30.8026 22.7704 30.9005 22.7704 31.3083C22.7882 35.4033 22.7704 39.4819 22.7704 43.5769C22.7704 43.7726 22.7704 43.9521 22.7704 44.2131C22.5746 44.2131 22.4144 44.2131 22.272 44.2131C18.2848 44.2131 14.2976 44.2131 10.3105 44.2131C8.77969 44.2131 7.92529 43.3321 7.92529 41.717C7.92529 36.3495 7.92529 30.9657 7.92529 25.5982C7.92529 25.1904 8.06769 24.9456 8.35249 24.7009C11.3073 22.1559 14.2442 19.6108 17.1812 17.0657C19.7622 14.8306 22.361 12.5792 24.9598 10.3441C25.654 9.74048 26.3304 9.13684 27.0424 8.5332C28.0926 9.4305 29.1071 10.3115 30.1217 11.1925C33.0943 13.7702 36.0669 16.3479 39.0395 18.9256C41.3179 20.8996 43.614 22.8737 45.8746 24.8641C46.017 24.9946 46.1238 25.2393 46.1238 25.4351C46.1416 30.9494 46.1416 36.4474 46.1238 41.9617C46.1238 43.2832 45.2516 44.2131 44.0056 44.2131C39.8405 44.2294 35.6931 44.2131 31.5279 44.2131C31.4745 44.1968 31.4211 44.1805 31.2787 44.1642Z" fill="#C4C4C4"/>
</svg>
