<svg width="48" height="42" viewBox="0 0 48 42" fill="none" xmlns="http://www.w3.org/2000/svg">
<path d="M32.5607 13.644C31.3467 12.3291 30.372 11.2927 29.2948 10.117C27.5507 11.1844 25.8408 12.2518 24.0796 13.2882C18.1461 16.7843 11.7853 19.4451 4.80882 20.7136C2.65433 21.1003 1.08121 20.3887 0.722125 18.7954C0.380142 17.3103 1.42319 16.0573 3.54348 15.6551C11.7169 14.1081 18.7617 10.4419 25.5843 6.04855C24.5412 4.88834 23.5324 3.75907 22.3183 2.41323C27.7046 1.59335 32.8001 0.81988 38.1863 0C36.2883 4.59442 34.4758 8.98774 32.5607 13.644Z" fill="#C4C4C4"/>
<path d="M47.5613 26.9579C47.5613 30.6677 47.5798 34.3933 47.5613 38.1031C47.5428 40.692 46.4694 41.6076 43.4528 41.6234C42.805 41.6234 42.1573 41.655 41.5095 41.6076C39.4367 41.4971 38.2153 40.5342 38.2153 38.7503C38.1782 30.8729 38.1782 22.9956 38.2153 15.1182C38.2338 13.3344 39.4367 12.3714 41.5095 12.2767C42.2868 12.2293 43.0641 12.2451 43.8414 12.2609C46.3584 12.324 47.5243 13.287 47.5428 15.4497C47.5798 19.3016 47.5613 23.1219 47.5613 26.9579Z" fill="#C4C4C4"/>
<path d="M35.4901 30.0766C35.4901 32.874 35.5059 35.6562 35.4901 38.4536C35.4742 40.6548 34.4911 41.572 32.2235 41.6179C31.5575 41.6332 30.8915 41.6484 30.2255 41.6026C28.5446 41.4803 27.5139 40.5631 27.4981 38.9275C27.4505 32.9657 27.4505 27.004 27.4981 21.0576C27.5139 19.422 28.5605 18.5048 30.2414 18.3978C30.9549 18.3519 31.6843 18.3672 32.4138 18.3825C34.4752 18.4436 35.4742 19.3914 35.4901 21.3939C35.5218 24.283 35.4901 27.1875 35.4901 30.0766Z" fill="#C4C4C4"/>
<path d="M15.4215 32.3808C15.4215 30.3671 15.3898 28.3534 15.4215 26.3397C15.4531 24.3105 16.4498 23.3502 18.4905 23.2882C19.2182 23.2572 19.9301 23.2572 20.6578 23.3037C22.3347 23.4276 23.3789 24.357 23.3947 25.9989C23.458 30.2897 23.458 34.5804 23.3947 38.8866C23.3789 40.5441 22.3506 41.4735 20.6737 41.5974C19.8985 41.6439 19.1233 41.6439 18.3482 41.6129C16.4814 41.5199 15.4689 40.5751 15.4215 38.7472C15.374 36.6251 15.4215 34.503 15.4215 32.3808Z" fill="#C4C4C4"/>
<path d="M3.36782 35.4081C3.36782 34.2951 3.31256 33.1821 3.36782 32.0691C3.45992 30.3779 4.60198 29.4961 6.79399 29.4094C7.6229 29.3805 8.47022 29.3805 9.31755 29.4094C11.4175 29.4961 12.6148 30.3489 12.67 31.9534C12.7437 34.3385 12.7437 36.7235 12.67 39.0941C12.6148 40.6263 11.4175 41.4936 9.46492 41.5948C8.50707 41.6382 7.53079 41.6526 6.55452 41.5948C4.60197 41.4936 3.47834 40.5974 3.38624 39.0508C3.31256 37.8366 3.36782 36.6223 3.36782 35.4081Z" fill="#C4C4C4"/>
</svg>
