<svg width="50" height="49" viewBox="0 0 50 49" fill="none" xmlns="http://www.w3.org/2000/svg">
<path d="M0.460671 11.7309C0.460671 9.69689 0.355049 7.68742 0.487077 5.65345C0.698321 2.56573 3.36528 0.972855 8.43516 0.825821C10.3892 0.77681 12.3432 0.77681 14.2708 0.825821C19.1294 0.972855 21.9284 2.54122 22.0604 5.4574C22.2453 9.77041 22.2453 14.1079 22.0604 18.4209C21.9284 21.2146 19.1822 22.7829 14.6141 22.9545C12.3696 23.0525 10.0987 23.0525 7.88064 22.9545C3.36528 22.7584 0.751133 21.1656 0.539888 18.3474C0.328643 16.1419 0.460671 13.9364 0.460671 11.7309Z" fill="#C4C4C4"/>
<path d="M27.3655 11.7299C27.3655 9.69592 27.2598 7.68644 27.3919 5.65247C27.6031 2.56475 30.2701 0.971879 35.3399 0.824845C37.294 0.775833 39.248 0.775833 41.1756 0.824845C46.0342 0.971879 48.8332 2.54025 48.9652 5.45643C49.1501 9.76943 49.1501 14.1069 48.9652 18.42C48.8332 21.2136 46.087 22.782 41.5188 22.9535C39.2744 23.0515 37.0035 23.0515 34.7854 22.9535C30.2701 22.7575 27.6559 21.1646 27.4447 18.3464C27.2334 16.1409 27.3655 13.9354 27.3655 11.7299Z" fill="#C4C4C4"/>
<path d="M0.460671 37.4809C0.460671 35.4469 0.355049 33.4374 0.487077 31.4034C0.698321 28.3157 3.36528 26.7229 8.43516 26.5758C10.3892 26.5268 12.3432 26.5268 14.2708 26.5758C19.1294 26.7229 21.9284 28.2912 22.0604 31.2074C22.2453 35.5204 22.2453 39.8579 22.0604 44.1709C21.9284 46.9646 19.1822 48.5329 14.6141 48.7045C12.3696 48.8025 10.0987 48.8025 7.88064 48.7045C3.36528 48.5084 0.751133 46.9156 0.539888 44.0974C0.328643 41.8919 0.460671 39.6864 0.460671 37.4809Z" fill="#C4C4C4"/>
<path d="M27.3655 37.4809C27.3655 35.4469 27.2598 33.4374 27.3919 31.4034C27.6031 28.3157 30.2701 26.7229 35.3399 26.5758C37.294 26.5268 39.248 26.5268 41.1756 26.5758C46.0342 26.7229 48.8332 28.2912 48.9652 31.2074C49.1501 35.5204 49.1501 39.8579 48.9652 44.1709C48.8332 46.9646 46.087 48.5329 41.5188 48.7045C39.2744 48.8025 37.0035 48.8025 34.7854 48.7045C30.2701 48.5084 27.6559 46.9156 27.4447 44.0974C27.2334 41.8919 27.3655 39.6864 27.3655 37.4809Z" fill="#C4C4C4"/>
</svg>
