<svg width="38" height="22" viewBox="0 0 38 22" fill="none" xmlns="http://www.w3.org/2000/svg">
<path d="M37.1341 14.1183H0.349236V9.27393H33.8659C35.6738 9.27393 37.1341 10.7342 37.1341 12.5421V14.1183Z" fill="#A8A8A8"/>
<path d="M12.1241 8.55532H2.24991V7.18777C2.24991 6.33015 2.94527 5.65796 3.77971 5.65796H10.8261C11.5446 5.65796 12.1241 6.23743 12.1241 6.95598V8.55532Z" fill="#A8A8A8"/>
<path d="M37.1109 14.8368H0.349236V15.6944H37.1109V14.8368Z" fill="#A8A8A8"/>
<path d="M1.85431 15.6689L1.85431 0L-9.53674e-07 0L-9.53674e-07 15.6689H1.85431Z" fill="#A8A8A8"/>
<path d="M7.37244 15.3699L1.46183 21.86H0.418777V21.8368L6.79297 14.8368L7.37244 15.3699Z" fill="#A8A8A8"/>
<path d="M31.3162 15.3699L36.2533 21.86H37.1341V21.8368L31.803 14.8368L31.3162 15.3699Z" fill="#A8A8A8"/>
</svg>
