<svg width="42" height="28" viewBox="0 0 42 28" fill="none" xmlns="http://www.w3.org/2000/svg">
<path d="M29.558 24.5491C29.9194 25.3366 30.2034 26.0724 31.1587 26.2273C31.3394 26.2531 31.6105 26.6533 31.5718 26.8211C31.5201 27.0406 31.1716 27.3891 31.0167 27.3633C30.5132 27.26 29.9323 27.1309 29.5709 26.7953C29.1061 26.3564 28.848 25.698 28.4607 25.1687C28.3316 24.9751 28.0863 24.7427 27.8927 24.7427C22.4967 24.7169 17.0878 24.7169 11.6918 24.7427C11.5111 24.7427 11.2787 24.9493 11.1496 25.13C10.7623 25.6851 10.4912 26.3564 10.0136 26.8082C9.66506 27.1438 9.07124 27.26 8.56779 27.3633C8.42579 27.3891 8.06433 27.0664 8.03851 26.8727C8.0127 26.6791 8.24506 26.266 8.39997 26.2402C9.38106 26.0853 9.69088 25.3366 10.0136 24.6136C9.97488 24.5491 9.96197 24.4846 9.93615 24.4716C8.21924 23.8778 7.05742 22.6902 6.20542 21.1153C5.12106 19.1402 3.95924 17.2038 2.82325 15.2417C2.74579 15.0997 2.66834 14.9447 2.51343 14.6478C3.42997 14.7382 4.23034 14.8544 5.01779 14.8673C7.8707 14.9577 10.7236 15.0609 13.5765 15.0609C17.6041 15.048 21.5543 14.4155 25.4916 13.6538C29.8807 12.8147 34.2827 12.0789 38.6718 11.2915C38.8009 11.2657 38.917 11.2657 39.1623 11.2269C39.0074 11.5626 38.9041 11.8337 38.7621 12.0789C36.9032 15.3191 35.0314 18.5593 33.1596 21.7866C32.385 23.1807 31.1587 24.0456 29.558 24.5491Z" fill="#A8A8A8"/>
<path d="M12.2082 13.912C10.1685 13.8088 7.89652 13.7055 5.62452 13.5764C4.21743 13.4989 2.79743 13.3828 1.39034 13.3182C0.512524 13.2795 -0.0812937 12.7115 0.00906983 11.9111C0.0865243 11.1495 0.757797 10.7622 1.62271 10.8526C3.0298 10.9946 4.44979 11.072 5.85688 11.1753C10.5816 11.5238 15.3192 11.5497 20.0052 10.8138C23.5552 10.2588 27.0536 9.4713 30.5907 8.85166C33.663 8.32239 36.7483 7.87057 39.8207 7.39294C40.5823 7.27676 41.202 7.70276 41.3181 8.38694C41.4472 9.10985 40.9954 9.69075 40.195 9.83275C34.4376 10.8526 28.6801 11.8724 22.9227 12.8664C21.1929 13.1633 19.4501 13.3957 17.6945 13.5764C15.9647 13.7442 14.2091 13.7958 12.2082 13.912Z" fill="#A8A8A8"/>
<path d="M10.0782 2.42295C9.2778 0.796401 7.56089 -0.300871 5.85689 0.0734929C4.12707 0.447856 3.01689 1.86786 3.00398 3.71385C2.99107 5.45658 3.00398 7.19931 3.00398 8.94203C3.00398 9.18731 3.00398 9.44549 3.00398 9.7424C3.42998 9.78112 3.79144 9.80694 4.25616 9.84567C4.25616 9.52294 4.25616 9.29058 4.25616 9.05822C4.25616 7.22512 4.24325 5.40494 4.25616 3.57185C4.26907 2.46167 5.00489 1.54513 6.02471 1.31276C7.16071 1.05458 8.16762 1.49349 8.68398 2.46167C7.83198 2.74567 7.22525 3.55895 7.22525 4.51422C7.22525 4.54004 7.22525 4.57876 7.22525 4.60458H11.6143C11.6143 4.57876 11.6143 4.54004 11.6143 4.51422C11.6143 3.53313 10.9689 2.70695 10.0782 2.42295Z" fill="#A8A8A8"/>
</svg>
