<svg width="24" height="23" viewBox="0 0 24 23" fill="none" xmlns="http://www.w3.org/2000/svg">
<path d="M21 3H3V20H21V3Z" fill="#A8A8A8"/>
<path d="M23.1111 0C22.9333 0 14.5778 0.178295 14.5778 0.178295C14.0444 0.178295 13.6889 0.534884 13.6889 1.06977C13.6889 1.60465 14.0444 1.96124 14.5778 1.96124H22.2222V9.44961C22.2222 9.9845 22.5778 10.3411 23.1111 10.3411C23.6444 10.3411 24 9.9845 24 9.44961V0.891473C24 0.356589 23.6444 0 23.1111 0Z" fill="#A8A8A8"/>
<path d="M0 0.891473C0 1.06977 0.177778 9.44961 0.177778 9.44961C0.177778 9.9845 0.533333 10.3411 1.06667 10.3411C1.6 10.3411 1.95556 9.9845 1.95556 9.44961V1.96124H9.42222C9.95556 1.96124 10.3111 1.60465 10.3111 1.06977C10.3111 0.534884 10.1333 0 9.6 0H0.888889C0.355556 0 0 0.356589 0 0.891473Z" fill="#A8A8A8"/>
<path d="M0.888889 23C1.06667 23 9.42222 22.8217 9.42222 22.8217C9.95556 22.8217 10.3111 22.4651 10.3111 21.9302C10.3111 21.3953 9.95556 21.0387 9.42222 21.0387H1.95556V13.3721C1.95556 12.8372 1.42222 12.4806 0.888889 12.4806C0.355556 12.4806 0 12.8372 0 13.3721V21.9302C0 22.4651 0.355556 23 0.888889 23Z" fill="#A8A8A8"/>
<path d="M24 21.9302C24 21.7519 23.8222 13.3721 23.8222 13.3721C23.8222 12.8372 23.4667 12.4806 22.9333 12.4806C22.4 12.4806 22.0444 12.8372 22.0444 13.3721V21.0387H14.4C13.8667 21.0387 13.5111 21.3953 13.5111 21.9302C13.5111 22.4651 13.8667 22.8217 14.4 22.8217H23.1111C23.6444 23 24 22.4651 24 21.9302Z" fill="#A8A8A8"/>
</svg>
