<svg width="54" height="46" viewBox="0 0 54 46" fill="none" xmlns="http://www.w3.org/2000/svg">
<path d="M0.699706 10.7504C0.699706 8.75198 0.595926 6.77766 0.725643 4.77927C0.933192 1.74558 3.5535 0.180577 8.53467 0.0361155C10.4545 -0.0120385 12.3743 -0.0120385 14.2682 0.0361155C19.0418 0.180577 21.7918 1.7215 21.9216 4.58666C22.1032 8.82421 22.1032 13.0858 21.9216 17.3234C21.7918 20.0682 19.0937 21.6091 14.6055 21.7776C12.4003 21.8739 10.1691 21.8739 7.98985 21.7776C3.55349 21.585 0.985083 20.02 0.777534 17.2512C0.569985 15.0842 0.699706 12.9173 0.699706 10.7504Z" fill="#C4C4C4"/>
<path d="M0.698241 34.9008C0.698241 32.9024 0.594461 30.9281 0.724179 28.9297C0.931727 25.896 3.55204 24.331 8.53321 24.1865C10.453 24.1384 12.3729 24.1384 14.2667 24.1865C19.0404 24.331 21.7904 25.8719 21.9201 28.737C22.1017 32.9746 22.1017 37.2362 21.9201 41.4738C21.7904 44.2185 19.0922 45.7595 14.604 45.928C12.3988 46.0243 10.1676 46.0243 7.98838 45.928C3.55203 45.7354 0.983618 44.1704 0.776069 41.4015C0.56852 39.2587 0.698241 37.0677 0.698241 34.9008Z" fill="#C4C4C4"/>
<path d="M27.1321 34.9008C27.1321 32.9024 27.0283 30.9281 27.158 28.9297C27.3656 25.896 29.986 24.331 34.9673 24.1865C36.8872 24.1384 38.8071 24.1384 40.701 24.1865C45.4748 24.331 48.2249 25.8719 48.3547 28.737C48.5363 32.9746 48.5363 37.2362 48.3547 41.4738C48.2249 44.2185 45.5267 45.7595 41.0383 45.928C38.833 46.0243 36.6018 46.0243 34.4225 45.928C29.986 45.7354 27.4175 44.1704 27.2099 41.4015C27.0024 39.2587 27.158 37.0677 27.1321 34.9008Z" fill="#C4C4C4"/>
<path d="M53.2868 1.28702L37.1837 15.8813C36.8621 16.1727 36.3531 16.1727 36.0315 15.8813L28.5828 9.13056C28.0737 8.66917 28.4488 7.84353 29.1723 7.86782C29.3866 7.86782 29.5742 7.94067 29.7082 8.08637L36.0047 13.793C36.3263 14.0844 36.8353 14.0844 37.1569 13.793L52.1347 0.218549C52.2955 0.0728487 52.5098 0 52.7242 0C53.4208 0.0485668 53.7959 0.825632 53.2868 1.28702Z" fill="#C4C4C4"/>
</svg>
