<svg width="21" height="23" viewBox="0 0 21 23" fill="none" xmlns="http://www.w3.org/2000/svg">
<path d="M0.389535 11.3163C0.389535 9.21267 0.291109 7.13443 0.414134 5.03085C0.610975 1.83746 3.0961 0.190083 7.82028 0.0380165C9.64106 -0.0126722 11.4618 -0.0126722 13.258 0.0380165C17.7853 0.190083 20.3935 1.81212 20.5165 4.8281C20.6887 9.2887 20.6887 13.7747 20.5165 18.2353C20.3935 21.1245 17.8345 22.7466 13.5779 22.924C11.4864 23.0253 9.37039 23.0253 7.30356 22.924C3.09609 22.7212 0.660188 21.0738 0.463347 18.1592C0.266507 15.8782 0.389535 13.5972 0.389535 11.3163Z" fill="#C4C4C4"/>
<path d="M17.8007 6.27734L8.28095 16.0887C8.09087 16.2846 7.78992 16.2846 7.59984 16.0887L3.19634 11.5503C2.89538 11.2402 3.11714 10.6851 3.54482 10.7014C3.67154 10.7014 3.78242 10.7504 3.86162 10.8484L7.58399 14.6848C7.77407 14.8807 8.07503 14.8807 8.26511 14.6848L17.1196 5.55903C17.2147 5.46108 17.3414 5.41211 17.4681 5.41211C17.8799 5.44476 18.1017 5.96716 17.8007 6.27734Z" fill="white"/>
</svg>
