<svg width="18" height="18" viewBox="0 0 18 18" fill="none" xmlns="http://www.w3.org/2000/svg">
<path d="M2.77649 17.9971C2.77649 16.9289 2.80975 16.0087 2.75986 15.0884C2.74323 14.7598 2.64344 14.3818 2.42725 14.1518C0.148872 11.6868 -0.599499 8.84389 0.498112 5.70518C1.64561 2.40215 4.20671 0.594512 7.64921 0.101522C12.2392 -0.555799 16.48 2.04062 17.6774 6.09958C18.8415 10.0764 16.7294 14.3161 12.7714 15.8937C10.8256 16.666 8.82998 16.9125 6.7678 16.3374C6.46845 16.2552 6.06932 16.3373 5.76997 16.4688C4.78877 16.9289 3.84084 17.4384 2.77649 17.9971ZM3.70779 10.7666C3.74105 10.7994 5.93628 9.8463 6.96736 9.25472C7.54943 8.92606 7.9153 9.04109 8.33106 9.46835C8.86324 10.0106 9.42867 10.5036 9.86106 10.9145C11.3744 9.46835 12.788 8.1044 14.3513 6.59257C13.1206 7.21702 12.0563 7.72645 11.0086 8.28517C10.5429 8.53166 10.2103 8.4988 9.84443 8.12084C9.26237 7.54568 8.64704 7.01982 8.06497 6.49397C6.56823 7.97294 5.13801 9.36975 3.70779 10.7666Z" fill="url(#paint0_linear)"/>
<path d="M3.70801 10.7679C5.13823 9.37107 6.56845 7.97426 8.04856 6.51172C8.63062 7.03758 9.24595 7.56343 9.82802 8.13859C10.1939 8.50012 10.5265 8.54941 10.9921 8.30292C12.0232 7.7442 13.0876 7.23477 14.3349 6.61032C12.7716 8.12216 11.3414 9.4861 9.84465 10.9322C9.41226 10.5378 8.84682 10.0284 8.31464 9.4861C7.89888 9.05884 7.53301 8.92737 6.95095 9.27247C5.93649 9.84762 3.74127 10.8007 3.70801 10.7679Z" fill="white"/>
<defs>
<linearGradient id="paint0_linear" x1="-0.000801947" y1="8.99749" x2="17.9973" y2="8.99749" gradientUnits="userSpaceOnUse">
<stop stop-color="#B8D2FF"/>
<stop offset="0.6832" stop-color="#509CDA"/>
<stop offset="1" stop-color="#2485CA"/>
</linearGradient>
</defs>
</svg>
