<svg width="22" height="22" viewBox="0 0 22 22" fill="none" xmlns="http://www.w3.org/2000/svg">
<path d="M4.57955 18.4498C4.50143 18.4145 4.44562 18.3715 4.53491 18.2894C4.59071 18.2424 4.65396 18.2033 4.71348 18.1603C5.2864 17.7691 5.82211 17.3428 6.17553 16.7169C6.47315 16.1928 6.42479 15.8877 6.05277 15.5004C3.98803 13.3295 3.0803 10.7283 3.53416 7.65765C3.79086 5.92482 4.54607 4.42668 5.64354 3.12411C6.30574 2.33397 7.09443 1.70029 7.95753 1.16831C8.00961 1.13702 8.08402 1.12529 8.09146 1.04314C8.07286 0.996204 8.04309 1.01185 8.01705 1.01185C6.54756 1.01185 5.07806 0.980558 3.61229 1.01967C2.21348 1.06661 1.00068 2.2088 1.0044 3.84385C1.01184 8.62382 1.0044 13.4038 1.0044 18.1916C1.0044 19.678 2.07955 20.918 3.48952 20.9727C4.68 21.0236 5.87047 20.9806 7.06467 20.9766C7.15024 20.9806 7.23952 20.9845 7.32509 20.9845H13.6197C15.1897 20.9845 16.7596 20.9923 18.3296 20.9845C19.7842 20.9845 20.9672 19.7484 20.9672 18.219V18.1916V15.5121C20.9672 15.4496 20.9895 15.3791 20.9486 15.3087C20.8705 15.3127 20.8407 15.3831 20.7961 15.4261C19.9516 16.3179 18.9508 17.0377 17.8571 17.5501C15.1748 18.794 12.4479 18.88 9.68 17.8787C9.4419 17.7887 9.17777 17.777 8.92851 17.8435C8.56393 17.9412 8.19934 18.0547 7.83848 18.1681C6.77821 18.5202 5.6919 18.6766 4.57955 18.4498ZM7.74175 10.7243C7.81616 10.6226 7.85336 10.564 7.898 10.5053C8.47092 9.74254 9.04012 8.98369 9.61303 8.21701C9.78044 7.99796 9.94413 7.77109 10.0483 7.5051C10.1711 7.20391 10.0409 6.91836 9.74324 6.80884C9.61303 6.76581 9.47166 6.75016 9.33402 6.75799C8.55649 6.75408 7.77896 6.75408 7.00143 6.75799C6.89354 6.75799 6.78193 6.77363 6.67777 6.80102C6.43223 6.8636 6.28714 7.12568 6.34666 7.38775C6.39131 7.56378 6.52152 7.70068 6.68521 7.7398C6.78937 7.76718 6.89726 7.78283 7.00887 7.775C7.48134 7.77891 7.95381 7.775 8.42628 7.77891C8.47836 7.77891 8.54533 7.74371 8.58253 7.82585C8.54161 7.88062 8.5044 7.93538 8.46348 7.98623C7.7864 8.8859 7.11675 9.78948 6.43967 10.6852C6.27226 10.9082 6.18669 11.1585 6.30946 11.4323C6.43223 11.7062 6.68149 11.757 6.93446 11.7766C7.13535 11.7922 7.33997 11.7805 7.54458 11.7805C8.25143 11.7805 8.95083 11.7844 9.65768 11.7766C10.0334 11.7727 10.2343 11.534 10.1934 11.1664C10.1636 10.8769 9.9739 10.7283 9.62791 10.7204C9.01408 10.7204 8.40024 10.7243 7.74175 10.7243ZM12.7976 8.3148C12.2544 7.81412 11.6517 7.78283 11.0639 8.15052C10.3496 8.58862 10.0892 9.30835 10.1748 10.1454C10.2566 10.9238 10.5803 11.5614 11.3578 11.8235C11.8415 11.9878 12.2916 11.9291 12.686 11.5888C12.7901 11.5028 12.8199 11.5184 12.8943 11.6162C13.0394 11.8079 13.2849 11.8822 13.5044 11.7961C13.7239 11.7257 13.8653 11.5184 13.8653 11.2798C13.869 10.3645 13.8727 9.44526 13.8653 8.52994C13.8615 8.16225 13.5342 7.92756 13.1956 8.00188C13.0059 8.03708 12.9017 8.17007 12.7976 8.3148ZM15.8184 10.0124C15.7998 11.1585 16.7038 12.023 17.8385 11.9056C18.8801 11.7961 19.5572 10.9747 19.52 9.81686C19.4865 8.67076 18.6755 7.88844 17.5632 7.92364C16.5215 7.95494 15.7849 8.83505 15.8184 10.0124ZM15.4352 9.10104C15.4352 8.3813 15.4389 7.66548 15.4352 6.94574C15.4352 6.57805 15.212 6.35118 14.8809 6.35509C14.5572 6.359 14.3452 6.58979 14.3415 6.94183C14.3377 7.15697 14.3415 7.3682 14.3415 7.58333V11.2289C14.3415 11.5145 14.5089 11.7609 14.7246 11.8196C15.026 11.9057 15.3348 11.7179 15.4129 11.4011C15.4278 11.3463 15.4352 11.2915 15.4315 11.2329C15.4389 10.5209 15.4352 9.81295 15.4352 9.10104Z" fill="#FDFEFE"/>
<path d="M7.06027 20.9803C5.86979 20.9803 4.6756 21.0233 3.48512 20.9764C2.07515 20.9177 1 19.6777 1 18.1952C1 13.4153 1.00744 8.6353 1 3.8475C1 2.21245 2.21652 1.07027 3.61533 1.03115C5.0811 0.988124 6.5506 1.02333 8.02009 1.02333C8.04613 1.02333 8.07961 1.00768 8.09449 1.05462C8.08705 1.13676 8.00893 1.14459 7.96057 1.17979C7.09747 1.71177 6.30878 2.34936 5.64658 3.13559C4.54911 4.43424 3.79018 5.92847 3.53348 7.66522C3.07961 10.7319 3.99107 13.3331 6.05208 15.508C6.41667 15.8991 6.46503 16.2003 6.17485 16.7245C5.82143 17.3542 5.28571 17.7806 4.7128 18.1679C4.65327 18.2031 4.59003 18.25 4.53051 18.293C4.4375 18.3752 4.49702 18.4182 4.57515 18.4534C4.59375 18.4964 4.61607 18.5316 4.64211 18.5668C5.14435 19.0362 5.61682 19.533 6.11161 20.0102C6.34226 20.2332 6.57292 20.4679 6.79613 20.7026C6.88542 20.7886 7.03795 20.816 7.06027 20.9803Z" fill="#0180C7"/>
<path d="M7.06032 20.9804C7.03799 20.82 6.88547 20.7926 6.79618 20.6948C6.57296 20.4562 6.34231 20.2255 6.11165 20.0025C5.62058 19.5253 5.14439 19.0246 4.64216 18.5591C4.61612 18.5239 4.5938 18.4848 4.5752 18.4457C5.68755 18.6765 6.77386 18.52 7.84157 18.1758C8.20243 18.0623 8.56701 17.945 8.9316 17.8511C9.18085 17.7807 9.44127 17.7963 9.68309 17.8863C12.4472 18.8838 15.1742 18.7938 17.8602 17.5577C18.9539 17.0492 19.951 16.3334 20.7992 15.4416C20.8438 15.3946 20.8736 15.3281 20.9517 15.3242C20.9926 15.3868 20.9703 15.4572 20.9703 15.5276V18.2071C20.9777 19.7365 19.8096 20.9843 18.355 20.9999H18.3326C16.7627 21.0078 15.1928 20.9999 13.6228 20.9999H7.32073C7.23517 20.9882 7.14588 20.9804 7.06032 20.9804Z" fill="#0172B1"/>
<path d="M7.74087 10.7251C8.39935 10.7251 9.01691 10.7212 9.63447 10.7251C9.98045 10.7291 10.1665 10.8816 10.1999 11.1711C10.2409 11.5348 10.04 11.7774 9.66423 11.7813C8.95739 11.7891 8.25798 11.7852 7.55114 11.7852C7.34653 11.7852 7.14563 11.793 6.94102 11.7813C6.68804 11.7656 6.43879 11.7109 6.31602 11.4371C6.19325 11.1632 6.28254 10.9129 6.44623 10.6899C7.11587 9.79027 7.79295 8.88669 8.47004 7.99094C8.51096 7.93617 8.54816 7.88141 8.58908 7.83056C8.54444 7.75233 8.48492 7.78753 8.43283 7.78362C7.96036 7.77971 7.48789 7.78362 7.01542 7.77971C6.90754 7.77971 6.79593 7.76406 6.69176 7.7445C6.44251 7.68583 6.28998 7.42375 6.34578 7.16559C6.3867 6.98957 6.51691 6.84875 6.6806 6.80963C6.78477 6.78225 6.89266 6.76661 7.00426 6.76661C7.78179 6.76269 8.55932 6.76269 9.33685 6.76661C9.4745 6.76269 9.61215 6.78225 9.74608 6.81746C10.0437 6.92307 10.1702 7.21253 10.0511 7.51372C9.94697 7.7758 9.77956 7.99876 9.61587 8.22563C9.04295 8.9923 8.47376 9.75115 7.90084 10.51C7.85248 10.5648 7.80783 10.6234 7.74087 10.7251Z" fill="#0180C7"/>
<path d="M12.7964 8.31522C12.9006 8.17441 13.0085 8.04141 13.1871 8.0023C13.5331 7.92798 13.853 8.16267 13.8567 8.53036C13.8716 9.44568 13.8642 10.3649 13.8567 11.2802C13.8567 11.5188 13.7079 11.73 13.4958 11.7965C13.2764 11.8826 13.0308 11.8161 12.8857 11.6166C12.8113 11.5188 12.7816 11.5032 12.6774 11.5892C12.2793 11.9295 11.8329 11.9882 11.3493 11.8239C10.5717 11.5579 10.2555 10.9203 10.1662 10.1459C10.0732 9.30877 10.3411 8.59295 11.0554 8.15094C11.6506 7.78325 12.2496 7.81454 12.7964 8.31522ZM11.2525 9.98548C11.26 10.1889 11.3232 10.3805 11.4348 10.5409C11.6692 10.8695 12.1194 10.9399 12.4393 10.6935C12.4914 10.6504 12.5397 10.6035 12.5844 10.5409C12.8299 10.1928 12.8299 9.61779 12.5844 9.26965C12.4616 9.08972 12.2719 8.98411 12.0673 8.9802C11.5836 8.95281 11.2488 9.34006 11.2525 9.98548ZM15.8173 10.0129C15.7838 8.83547 16.5204 7.95536 17.5658 7.92406C18.6781 7.88886 19.4892 8.67118 19.5226 9.81728C19.5561 10.9751 18.8828 11.7965 17.8411 11.9061C16.7027 12.0273 15.7987 11.159 15.8173 10.0129ZM16.911 9.90333C16.9036 10.1341 16.9668 10.3571 17.097 10.5448C17.3351 10.8734 17.7853 10.9399 18.1015 10.6817C18.1499 10.6465 18.1871 10.5996 18.228 10.5527C18.481 10.2045 18.481 9.61779 18.2317 9.26965C18.1089 9.09363 17.9192 8.98411 17.7146 8.9802C17.2421 8.95673 16.911 9.33224 16.911 9.90333ZM15.4341 9.10146C15.4341 9.81337 15.4378 10.5214 15.4341 11.2333C15.4378 11.5579 15.196 11.8278 14.8835 11.8396C14.8314 11.8396 14.7756 11.8357 14.7235 11.82C14.504 11.7613 14.3403 11.5188 14.3403 11.2294V7.58376C14.3403 7.36862 14.3366 7.15739 14.3403 6.94225C14.3441 6.59021 14.5598 6.35942 14.8798 6.35942C15.2109 6.35551 15.4341 6.58239 15.4341 6.95008C15.4378 7.6659 15.4341 8.38563 15.4341 9.10146Z" fill="#0180C7"/>
<path d="M11.253 9.98515C11.2492 9.33974 11.5841 8.94858 12.0603 8.97596C12.2649 8.98378 12.4583 9.08939 12.5774 9.26933C12.8229 9.61355 12.8229 10.1925 12.5774 10.5406C12.343 10.8692 11.8928 10.9396 11.5729 10.6931C11.5208 10.6501 11.4725 10.6032 11.4278 10.5406C11.3236 10.3802 11.2604 10.1886 11.253 9.98515ZM16.9114 9.90301C16.9114 9.33583 17.2425 8.95249 17.715 8.97987C17.9196 8.98378 18.1131 9.09331 18.2321 9.26933C18.4814 9.61746 18.4814 10.2081 18.2284 10.5523C17.9829 10.877 17.5327 10.9318 17.2202 10.6775C17.1719 10.6423 17.1347 10.5954 17.0975 10.5445C16.9672 10.3568 16.9077 10.1338 16.9114 9.90301Z" fill="#FDFEFE"/>
<path d="M3.85728 1.03516H18.1616C19.7278 1.03516 20.9964 2.36901 20.9964 4.01579V17.9059C20.9964 19.5527 19.7278 20.8865 18.1616 20.8865H3.85728C2.29106 20.8865 1.02246 19.5527 1.02246 17.9059V4.01579C1.02246 2.36901 2.29106 1.03516 3.85728 1.03516Z" stroke="#0180C7" stroke-width="0.4314" stroke-miterlimit="10"/>
</svg>
